<svg width="78" height="78" viewBox="0 0 78 78" fill="none" xmlns="http://www.w3.org/2000/svg">
<path d="M39 52C37.2125 52 35.6828 51.3641 34.411 50.0923C33.1392 48.8204 32.5022 47.2897 32.5 45.5C32.4978 43.7103 33.1348 42.1807 34.411 40.911C35.6872 39.6413 37.2168 39.0043 39 39C40.7832 38.9957 42.3139 39.6327 43.5923 40.911C44.8706 42.1893 45.5065 43.719 45.5 45.5C45.4935 47.281 44.8576 48.8117 43.5923 50.0923C42.3269 51.3727 40.7962 52.0087 39 52ZM23.9688 22.75H54.0312L58.175 14.4625C58.7167 13.3792 58.6755 12.3229 58.0515 11.2937C57.4275 10.2646 56.4937 9.75 55.25 9.75H22.75C21.5042 9.75 20.5703 10.2646 19.9485 11.2937C19.3267 12.3229 19.2855 13.3792 19.825 14.4625L23.9688 22.75ZM27.3 68.25H50.7C55.575 68.25 59.7187 66.5578 63.1312 63.1735C66.5437 59.7892 68.25 55.6313 68.25 50.7C68.25 48.6417 67.8979 46.6375 67.1937 44.6875C66.4896 42.7375 65.4875 40.9771 64.1875 39.4062L55.7375 29.25H22.2625L13.8125 39.4062C12.5125 40.9771 11.5104 42.7375 10.8063 44.6875C10.1021 46.6375 9.75 48.6417 9.75 50.7C9.75 55.6292 11.4433 59.787 14.8298 63.1735C18.2163 66.56 22.373 68.2522 27.3 68.25Z" fill="url(#paint0_linear_1_166)"/>
<defs>
<linearGradient id="paint0_linear_1_166" x1="9.75" y1="39" x2="68.25" y2="39" gradientUnits="userSpaceOnUse">
<stop stop-color="#979BA0"/>
<stop offset="0.207253" stop-color="#979BA0"/>
<stop offset="0.386311" stop-color="#B3B6BA"/>
<stop offset="0.627443" stop-color="#B0B4B8"/>
<stop offset="0.835151" stop-color="#989CA1"/>
<stop offset="1" stop-color="#737373"/>
</linearGradient>
</defs>
</svg>
