<svg width="78" height="78" viewBox="0 0 78 78" fill="none" xmlns="http://www.w3.org/2000/svg">
<path fill-rule="evenodd" clip-rule="evenodd" d="M23.4 23.3998V19.4998C23.4 16.3968 24.6327 13.4208 26.8268 11.2267C29.021 9.03248 31.997 7.7998 35.1 7.7998H42.9C46.003 7.7998 48.979 9.03248 51.1731 11.2267C53.3673 13.4208 54.6 16.3968 54.6 19.4998V23.3998H62.4C64.4687 23.3998 66.4526 24.2216 67.9154 25.6844C69.3782 27.1472 70.2 29.1311 70.2 31.1998V45.1228C60.2135 48.819 49.6486 50.7075 39 50.6998C28.3514 50.7075 17.7865 48.819 7.79999 45.1228V31.1998C7.79999 29.1311 8.62177 27.1472 10.0846 25.6844C11.5473 24.2216 13.5313 23.3998 15.6 23.3998H23.4ZM31.2 19.4998C31.2 18.4655 31.6109 17.4735 32.3423 16.7421C33.0737 16.0107 34.0656 15.5998 35.1 15.5998H42.9C43.9343 15.5998 44.9263 16.0107 45.6577 16.7421C46.3891 17.4735 46.8 18.4655 46.8 19.4998V23.3998H31.2V19.4998ZM35.1 38.9998C35.1 37.9655 35.5109 36.9735 36.2423 36.2421C36.9737 35.5107 37.9656 35.0998 39 35.0998H39.039C40.0733 35.0998 41.0653 35.5107 41.7967 36.2421C42.5281 36.9735 42.939 37.9655 42.939 38.9998C42.939 40.0341 42.5281 41.0261 41.7967 41.7575C41.0653 42.4889 40.0733 42.8998 39.039 42.8998H39C37.9656 42.8998 36.9737 42.4889 36.2423 41.7575C35.5109 41.0261 35.1 40.0341 35.1 38.9998Z" fill="url(#paint0_linear_1_173)"/>
<path d="M7.79999 53.3984V62.3996C7.79999 64.4683 8.62177 66.4523 10.0846 67.9151C11.5473 69.3779 13.5313 70.1996 15.6 70.1996H62.4C64.4687 70.1996 66.4526 69.3779 67.9154 67.9151C69.3782 66.4523 70.2 64.4683 70.2 62.3996V53.3984C60.1468 56.7848 49.6082 58.5079 39 58.4996C28.3917 58.5079 17.8532 56.7848 7.79999 53.3984Z" fill="url(#paint1_linear_1_173)"/>
<defs>
<linearGradient id="paint0_linear_1_173" x1="7.79999" y1="29.2498" x2="70.2" y2="29.2498" gradientUnits="userSpaceOnUse">
<stop stop-color="#979BA0"/>
<stop offset="0.207253" stop-color="#979BA0"/>
<stop offset="0.386311" stop-color="#B3B6BA"/>
<stop offset="0.627443" stop-color="#B0B4B8"/>
<stop offset="0.835151" stop-color="#989CA1"/>
<stop offset="1" stop-color="#737373"/>
</linearGradient>
<linearGradient id="paint1_linear_1_173" x1="7.79999" y1="61.799" x2="70.2" y2="61.799" gradientUnits="userSpaceOnUse">
<stop stop-color="#979BA0"/>
<stop offset="0.207253" stop-color="#979BA0"/>
<stop offset="0.386311" stop-color="#B3B6BA"/>
<stop offset="0.627443" stop-color="#B0B4B8"/>
<stop offset="0.835151" stop-color="#989CA1"/>
<stop offset="1" stop-color="#737373"/>
</linearGradient>
</defs>
</svg>
