<svg width="78" height="78" viewBox="0 0 78 78" fill="none" xmlns="http://www.w3.org/2000/svg">
<path fill-rule="evenodd" clip-rule="evenodd" d="M40.9344 8.31481C40.3452 7.97828 39.6785 7.80127 39 7.80127C38.3215 7.80127 37.6547 7.97828 37.0656 8.31481L9.76559 23.9148C9.0194 24.3417 8.43517 25.0031 8.10372 25.7963C7.77227 26.5895 7.71219 27.47 7.9328 28.3009C8.15342 29.1317 8.64237 29.8664 9.32365 30.3907C10.0049 30.915 10.8403 31.1995 11.7 31.2V58.5C10.6656 58.5 9.67366 58.9109 8.94227 59.6423C8.21088 60.3737 7.79999 61.3657 7.79999 62.4C7.79999 63.4344 8.21088 64.4263 8.94227 65.1577C9.67366 65.8891 10.6656 66.3 11.7 66.3H66.3C67.3343 66.3 68.3263 65.8891 69.0577 65.1577C69.7891 64.4263 70.2 63.4344 70.2 62.4C70.2 61.3657 69.7891 60.3737 69.0577 59.6423C68.3263 58.9109 67.3343 58.5 66.3 58.5V31.2C67.1596 31.1995 67.9951 30.915 68.6763 30.3907C69.3576 29.8664 69.8466 29.1317 70.0672 28.3009C70.2878 27.47 70.2277 26.5895 69.8963 25.7963C69.5648 25.0031 68.9806 24.3417 68.2344 23.9148L40.9344 8.31481ZM23.4 35.1C22.3656 35.1 21.3737 35.5109 20.6423 36.2423C19.9109 36.9737 19.5 37.9657 19.5 39V50.7C19.5 51.7344 19.9109 52.7263 20.6423 53.4577C21.3737 54.1891 22.3656 54.6 23.4 54.6C24.4343 54.6 25.4263 54.1891 26.1577 53.4577C26.8891 52.7263 27.3 51.7344 27.3 50.7V39C27.3 37.9657 26.8891 36.9737 26.1577 36.2423C25.4263 35.5109 24.4343 35.1 23.4 35.1ZM35.1 39C35.1 37.9657 35.5109 36.9737 36.2423 36.2423C36.9737 35.5109 37.9656 35.1 39 35.1C40.0343 35.1 41.0263 35.5109 41.7577 36.2423C42.4891 36.9737 42.9 37.9657 42.9 39V50.7C42.9 51.7344 42.4891 52.7263 41.7577 53.4577C41.0263 54.1891 40.0343 54.6 39 54.6C37.9656 54.6 36.9737 54.1891 36.2423 53.4577C35.5109 52.7263 35.1 51.7344 35.1 50.7V39ZM54.6 35.1C53.5656 35.1 52.5737 35.5109 51.8423 36.2423C51.1109 36.9737 50.7 37.9657 50.7 39V50.7C50.7 51.7344 51.1109 52.7263 51.8423 53.4577C52.5737 54.1891 53.5656 54.6 54.6 54.6C55.6343 54.6 56.6263 54.1891 57.3577 53.4577C58.0891 52.7263 58.5 51.7344 58.5 50.7V39C58.5 37.9657 58.0891 36.9737 57.3577 36.2423C56.6263 35.5109 55.6343 35.1 54.6 35.1Z" fill="url(#paint0_linear_1_159)"/>
<defs>
<linearGradient id="paint0_linear_1_159" x1="7.79999" y1="37.0506" x2="70.2" y2="37.0506" gradientUnits="userSpaceOnUse">
<stop stop-color="#979BA0"/>
<stop offset="0.207253" stop-color="#979BA0"/>
<stop offset="0.386311" stop-color="#B3B6BA"/>
<stop offset="0.627443" stop-color="#B0B4B8"/>
<stop offset="0.835151" stop-color="#989CA1"/>
<stop offset="1" stop-color="#737373"/>
</linearGradient>
</defs>
</svg>
